<!DOCTYPE svg PUBLIC "-//W3C//DTD SVG 1.1//EN" "http://www.w3.org/Graphics/SVG/1.1/DTD/svg11.dtd">
<!-- Uploaded to: SVG Repo, www.svgrepo.com, Transformed by: SVG Repo Mixer Tools -->
<svg fill="#850000" height="800px" width="800px" version="1.1" id="Layer_1" xmlns="http://www.w3.org/2000/svg" xmlns:xlink="http://www.w3.org/1999/xlink" viewBox="0 0 392.598 392.598" xml:space="preserve" stroke="#850000">
<g id="SVGRepo_bgCarrier" stroke-width="0"/>
<g id="SVGRepo_tracerCarrier" stroke-linecap="round" stroke-linejoin="round"/>
<g id="SVGRepo_iconCarrier"> <g> <g> <path d="M162.651,282.57c-42.602-13.317-88.954-13.317-131.491,0C12.541,288.452,0,305.648,0,325.43v56.178 c0,6.012,4.849,10.925,10.925,10.925H182.95c6.012,0,10.925-4.849,10.925-10.925V325.43 C193.81,305.648,181.269,288.452,162.651,282.57z M21.786,370.812V325.56c0-10.02,6.465-19.135,15.838-22.109 c38.4-11.96,80.162-11.96,118.432,0c9.374,2.909,15.838,11.96,15.838,22.109v45.253H21.786z"/> </g> </g> <g> <g> <path d="M96.905,149.269c-29.737,0-53.85,24.113-53.85,53.786c0.065,29.673,24.178,53.786,53.85,53.786 s53.851-24.113,53.851-53.786S126.642,149.269,96.905,149.269z M96.905,235.054c-17.648,0-32-14.352-32-32 c0-17.648,14.352-32,32-32c17.648,0,32,14.352,32,32C128.905,220.703,114.554,235.054,96.905,235.054z"/> </g> </g> <g> <g> <path d="M274.101,92.574c-5.301,0-9.632-4.331-9.632-9.632c-0.129-5.236,4.202-9.632,9.632-9.632c5.301,0,9.632,4.331,9.632,9.632 c0,6.012,4.848,10.925,10.925,10.925c6.012,0,10.925-4.849,10.925-10.925c0-13.511-8.598-25.018-20.622-29.543v-6.4 c0-6.012-4.849-10.925-10.925-10.925c-6.012,0-10.925,4.849-10.925,10.925v6.4c-11.96,4.461-20.622,15.968-20.622,29.543 c0,17.39,14.158,31.547,31.547,31.547c5.301,0,9.632,4.331,9.632,9.632c0,5.301-4.331,9.632-9.632,9.632 c-5.301,0-9.632-4.331-9.632-9.632c0-6.012-4.849-10.925-10.925-10.925c-6.012,0-10.925,4.849-10.925,10.925 c0,13.511,8.598,25.018,20.622,29.543v6.4c0,6.012,4.848,10.925,10.925,10.925c6.012,0,10.925-4.848,10.925-10.925v-6.4 c11.96-4.461,20.622-15.968,20.622-29.543C305.648,106.731,291.491,92.574,274.101,92.574z"/> </g> </g> <g> <g> <path d="M274.101,0.065c-65.358,0-118.432,46.416-118.432,103.564c0,27.151,12.347,53.269,34.069,72.533v58.052 c1.422,13.964,15.192,10.279,17.067,9.05l53.657-36.848c4.849,0.517,9.374,0.776,13.705,0.776 c65.358,0,118.432-46.416,118.432-103.564C392.598,46.481,339.394,0.065,274.101,0.065z M274.101,185.341 c-4.59,0-9.244-1.099-14.998-1.099c-11.055,0-47.58,29.285-47.58,29.285v-42.408c0-3.297-1.487-6.4-4.008-8.469 c-19.394-15.58-30.061-36.655-30.061-59.022c0-45.059,43.378-81.778,96.646-81.778c53.269,0,96.646,36.719,96.646,81.778 C370.747,148.751,327.305,185.341,274.101,185.341z"/> </g> </g> </g>
</svg>